<?xml version="1.0" encoding="UTF-8"?>
<svg width="560px" height="224px" viewBox="0 0 560 224" version="1.1" xmlns="http://www.w3.org/2000/svg" xmlns:xlink="http://www.w3.org/1999/xlink">
    <title>logo</title>
    <defs>
        <polygon id="path-1" points="0 0 560 0 560 224 0 224"></polygon>
    </defs>
    <g id="Page-1" stroke="none" stroke-width="1" fill="none" fill-rule="evenodd">
        <g id="3B-Liner_SetMotors_Home_Escuro" transform="translate(-175, -238)">
            <g id="logo" transform="translate(175, 238)">
                <mask id="mask-2" fill="white">
                    <use xlink:href="#path-1"></use>
                </mask>
                <g id="Clip-2"></g>
                <path d="M130.002075,27.3803347 L72.9307393,27.3803347 C72.367834,27.3803347 71.8957198,27.6003749 71.5053178,27.9900294 C71.1149157,28.3842681 70.9015564,28.8197643 70.9015564,29.3882015 L70.9015564,143.038961 C70.9015564,143.602814 71.1149157,144.084152 71.5053178,144.478391 C71.8957198,144.868045 72.367834,145.088086 72.9307393,145.088086 L130.002075,145.088086 C130.564981,145.088086 131.037095,144.868045 131.427497,144.478391 C131.817899,144.084152 132.031258,143.602814 132.031258,143.038961 L132.031258,126.765155 C132.031258,126.196718 131.817899,125.71538 131.427497,125.325726 C131.037095,124.931487 130.564981,124.716031 130.002075,124.716031 L95.2245136,124.716031 C94.6616083,124.716031 94.4028534,124.450149 94.4028534,123.886296 L94.4028534,97.1422444 C94.4028534,96.5738072 94.6616083,96.3125095 95.2245136,96.3125095 L115.184955,96.3125095 C115.74332,96.3125095 116.219974,96.138311 116.610376,95.7028148 C116.996239,95.3544178 117.214137,94.8730799 117.214137,94.3046427 L117.214137,77.9895792 C117.214137,77.421142 116.996239,76.9398041 116.610376,76.5501496 C116.219974,76.1559109 115.74332,75.9817124 115.184955,75.9817124 L95.2245136,75.9817124 C94.6616083,75.9817124 94.4028534,75.674573 94.4028534,75.11072 L94.4028534,48.5821242 C94.4028534,48.0182712 94.6616083,47.7111318 95.2245136,47.7111318 L130.002075,47.7111318 C130.564981,47.7111318 131.037095,47.5369333 131.427497,47.1426946 C131.817899,46.7530401 132.031258,46.2717022 132.031258,45.703265 L132.031258,29.3882015 C132.031258,28.8197643 131.817899,28.3842681 131.427497,27.9900294 C131.037095,27.6003749 130.564981,27.3803347 130.002075,27.3803347 L130.002075,27.3803347 Z M188.562387,18.7895988 C188.930091,18.418281 189.116213,17.9690323 189.116213,17.4326843 L189.116213,1.91985069 C189.116213,1.38808689 188.930091,0.934253988 188.562387,0.558351991 C188.190143,0.187034164 187.740726,-0.000916834139 187.214137,-0.000916834139 L124.504669,-0.000916834139 C123.973541,-0.000916834139 123.528664,0.187034164 123.15642,0.558351991 C122.788716,0.934253988 122.602594,1.38808689 122.602594,1.91985069 L122.602594,17.4326843 C122.602594,17.9690323 122.788716,18.418281 123.15642,18.7895988 C123.528664,19.1655008 123.973541,19.3488677 124.504669,19.3488677 L143.507263,19.3488677 C144.033852,19.3488677 144.301686,19.6193337 144.301686,20.1510975 L144.301686,145.14768 C144.301686,145.684028 144.483268,146.137861 144.855512,146.509179 C145.223217,146.885081 145.668093,147.068447 146.199222,147.068447 L164.729702,147.068447 C165.256291,147.068447 165.701167,146.885081 166.073411,146.509179 C166.445655,146.137861 166.627237,145.684028 166.627237,145.14768 L166.627237,20.1510975 C166.627237,19.6193337 166.890532,19.3488677 167.42166,19.3488677 L187.214137,19.3488677 C187.740726,19.3488677 188.190143,19.1655008 188.562387,18.7895988 L188.562387,18.7895988 Z M328.998184,145.120175 L348.509209,145.120175 C349.11751,145.120175 349.52607,144.913887 349.93463,144.570074 C350.343191,144.157499 350.547471,143.676161 350.547471,143.126061 L350.547471,48.4079257 C350.547471,47.8578252 350.819844,47.5140124 351.360052,47.5140124 L365.024125,47.5140124 C365.636965,47.5140124 366.113619,47.3764873 366.449546,46.9684961 C366.858106,46.5559207 367.062387,46.0745828 367.062387,45.5244823 L367.062387,29.1910822 C367.062387,28.5722191 366.858106,28.1596437 366.449546,27.7470684 C366.113619,27.3390772 365.636965,27.1327895 365.024125,27.1327895 L312.347082,27.1327895 C311.12594,27.1327895 310.10454,28.1596437 310.10454,29.3973698 L310.10454,45.2494321 C310.10454,46.4871582 311.12594,47.449834 312.347082,47.449834 L328.662257,47.449834 L328.662257,145.051412 C328.73035,145.120175 328.866537,145.120175 328.998184,145.120175 L328.998184,145.120175 Z M54.3094682,89.4316693 C50.8049287,86.2365023 45.6071336,82.0832436 38.7206226,77.0544084 C32.5695201,72.4152276 28.4566796,68.8304061 26.332166,66.249518 C24.253048,63.6686299 23.1726329,60.6935032 23.1726329,57.3287219 C23.1726329,53.8309996 23.9942931,51.1171706 25.5967575,49.1505614 C27.1992218,47.179368 29.3645914,46.1754346 32.0474708,46.1754346 C34.907393,46.1754346 37.2452659,47.2252097 38.9339818,49.3247598 C40.6680934,51.3784683 41.5351492,54.1793966 41.5351492,57.6771188 L41.5351492,62.2246162 C41.5351492,62.7517958 41.753048,63.2331337 42.1389105,63.6273724 C42.5293126,64.0170269 43.0059663,64.2370671 43.5280156,64.2370671 L62.712192,64.2370671 C63.2750973,64.2370671 63.751751,64.0170269 64.142153,63.6273724 C64.5325551,63.2331337 64.750454,62.7517958 64.750454,62.2246162 L64.750454,58.1584568 C64.750454,48.4950249 61.7180285,40.7065189 55.7394293,34.7150078 C49.7199741,28.7693384 41.793904,25.7942117 32.0474708,25.7942117 C22.4780804,25.7942117 14.7245136,28.6822392 8.83670558,34.4078684 C2.94435798,40.1380818 -0.00181582361,47.7936468 -0.00181582361,57.3287219 C-0.00181582361,63.4073322 1.21024643,68.7433069 3.63891051,73.3366459 C6.10843061,77.9254008 9.05006485,81.8219459 12.5182879,84.9712712 C15.9365759,88.1160123 20.444358,91.7054179 26.0280156,95.7257356 C32.4832685,100.452016 36.7686122,104.036837 38.9339818,106.443527 C41.0993515,108.850216 42.2297017,111.779501 42.2297017,115.148867 C42.2297017,118.385291 41.3172503,121.007437 39.5422827,123.061145 C37.7673152,125.073596 35.5156939,126.082114 32.8736706,126.082114 C30.1862516,126.082114 27.9800259,125.032339 26.29131,122.886947 C24.5571984,120.746139 23.6901427,117.945211 23.6901427,114.447489 L23.6901427,110.248388 C23.6901427,109.679951 23.4722438,109.198613 23.0863813,108.804375 C22.6959792,108.410136 22.2193256,108.235937 21.6972763,108.235937 L2.46770428,108.235937 C1.90479896,108.235937 1.47354086,108.410136 1.08313878,108.804375 C0.692736706,109.198613 0.474837873,109.679951 0.474837873,110.248388 L0.474837873,115.625621 C0.474837873,121.708815 1.81854734,127.086047 4.50596628,131.720644 C7.14798962,136.401082 10.9566796,140.031745 15.8503243,142.612633 C20.7439689,145.193522 26.4184176,146.463337 32.8736706,146.463337 C42.5293126,146.463337 50.369131,143.575309 56.3885863,137.716739 C62.4080415,131.853585 65.3996109,124.023821 65.3996109,114.099092 C65.3996109,108.717275 64.4463035,104.082679 62.4988327,100.144876 C60.5468223,96.2070735 57.8185473,92.6222521 54.3094682,89.4316693 L54.3094682,89.4316693 Z M527.476783,146.463337 C537.132425,146.463337 544.972244,143.575309 550.991699,137.716739 C557.015694,131.853585 560.002724,124.023821 560.002724,114.099092 C560.002724,108.717275 559.049416,104.082679 557.101946,100.144876 C555.149935,96.2070735 552.42166,92.6222521 548.912581,89.4316693 C545.408042,86.2365023 540.210246,82.0832436 533.323735,77.0544084 C527.172633,72.4152276 523.059792,68.8304061 520.935279,66.249518 C518.856161,63.6686299 517.775746,60.6935032 517.775746,57.3287219 C517.775746,53.8309996 518.597406,51.1171706 520.19987,49.1505614 C521.802335,47.179368 523.967704,46.1754346 526.655123,46.1754346 C529.510506,46.1754346 531.848379,47.2252097 533.537095,49.3247598 C535.271206,51.3784683 536.138262,54.1793966 536.138262,57.6771188 L536.138262,62.2246162 C536.138262,62.7517958 536.356161,63.2331337 536.746563,63.6273724 C537.132425,64.0170269 537.609079,64.2370671 538.131128,64.2370671 L557.315305,64.2370671 C557.87821,64.2370671 558.354864,64.0170269 558.745266,63.6273724 C559.135668,63.2331337 559.353567,62.7517958 559.353567,62.2246162 L559.353567,58.1584568 C559.353567,48.4950249 556.321141,40.7065189 550.342542,34.7150078 C544.323087,28.7693384 536.397017,25.7942117 526.655123,25.7942117 C517.081193,25.7942117 509.327626,28.6822392 503.439818,34.4078684 C497.547471,40.1380818 494.601297,47.7936468 494.601297,57.3287219 C494.601297,63.4073322 495.817899,68.7433069 498.242023,73.3366459 C500.711543,77.9254008 503.653178,81.8219459 507.121401,84.9712712 C510.539689,88.1160123 515.047471,91.7054179 520.631128,95.7257356 C527.086381,100.452016 531.376265,104.036837 533.537095,106.443527 C535.707004,108.850216 536.832815,111.779501 536.832815,115.148867 C536.832815,118.385291 535.920363,121.007437 534.145396,123.061145 C532.370428,125.073596 530.118807,126.082114 527.476783,126.082114 C524.789364,126.082114 522.583139,125.032339 520.894423,122.886947 C519.160311,120.746139 518.293256,117.945211 518.293256,114.447489 L518.293256,110.248388 C518.293256,109.679951 518.075357,109.198613 517.689494,108.804375 C517.299092,108.410136 516.822438,108.235937 516.300389,108.235937 L497.070817,108.235937 C496.507912,108.235937 496.076654,108.410136 495.686252,108.804375 C495.29585,109.198613 495.077951,109.679951 495.077951,110.248388 L495.077951,115.625621 C495.077951,121.708815 496.42166,127.086047 499.109079,131.720644 C501.751102,136.401082 505.559792,140.031745 510.453437,142.612633 C515.347082,145.193522 521.02153,146.463337 527.476783,146.463337 L527.476783,146.463337 Z M476.715435,93.0623324 C476.629183,92.8422922 476.629183,92.6222521 476.715435,92.4480536 C476.847082,92.2738551 477.019585,92.1409141 477.237484,92.0538149 C481.695331,89.1245298 485.163554,85.1454697 487.67393,80.0707927 C490.184306,74.9961157 491.396368,69.1788031 491.396368,62.5317556 C491.396368,55.7105096 490.098054,49.5860576 487.501427,44.1629836 C484.900259,38.7811672 481.177821,34.5866511 476.411284,31.524425 C471.603891,28.5034565 466.147341,26.9723435 460.041634,26.9723435 L445.061089,26.9723435 L445.061089,47.5323491 L456.187549,47.5323491 C459.651232,47.5323491 462.465759,48.8846795 464.631128,51.5985085 C466.796498,54.2664959 467.881453,58.0713575 467.881453,62.8801526 C467.881453,67.4734916 466.796498,71.1499965 464.631128,73.8179839 C462.465759,76.5272287 459.651232,77.8841433 456.187549,77.8841433 L445.061089,77.8841433 L445.061089,96.2529152 L454.367185,96.2529152 C454.712192,96.2529152 454.975486,96.4729554 455.188846,96.9084517 L468.053956,143.442368 C468.398962,144.579243 469.179767,145.14768 470.391829,145.14768 L490.402205,145.14768 C491.659663,145.14768 492.263424,144.579243 492.263424,143.442368 L492.090921,142.786832 L476.715435,93.0623324 Z M413.402205,58.1584568 C413.402205,54.5736353 412.448898,51.6856078 410.542283,49.4989583 C408.635668,47.3123089 406.166148,46.1754346 403.047471,46.1754346 C399.933333,46.1754346 397.463813,47.3123089 395.598054,49.4989583 C393.782231,51.6856078 392.86978,54.5736353 392.86978,58.1584568 L392.86978,114.099092 C392.86978,117.725171 393.782231,120.613198 395.598054,122.799848 C397.463813,124.986497 399.933333,126.082114 403.047471,126.082114 C406.166148,126.082114 408.635668,124.986497 410.542283,122.799848 C412.448898,120.613198 413.402205,117.725171 413.402205,114.099092 L413.402205,58.1584568 Z M436.917121,113.090574 C436.917121,123.239928 433.843839,131.330989 427.651881,137.363758 C421.455383,143.442368 413.270558,146.463337 403.047471,146.463337 C392.783528,146.463337 384.598703,143.442368 378.492996,137.363758 C372.387289,131.330989 369.309468,123.239928 369.309468,113.090574 L369.309468,59.1669743 C369.309468,49.0634621 372.387289,40.9724008 378.492996,34.8892063 C384.598703,28.8564377 392.783528,25.7942117 403.047471,25.7942117 C413.270558,25.7942117 421.455383,28.8564377 427.651881,34.8892063 C433.843839,40.9724008 436.917121,49.0634621 436.917121,59.1669743 L436.917121,113.090574 Z M284.210895,58.1584568 C284.210895,54.5736353 283.257588,51.6856078 281.350973,49.4989583 C279.489754,47.3123089 276.974838,46.1754346 273.856161,46.1754346 C270.737484,46.1754346 268.272503,47.3123089 266.406744,49.4989583 C264.590921,51.6856078 263.67847,54.5736353 263.67847,58.1584568 L263.67847,114.099092 C263.67847,117.725171 264.590921,120.613198 266.406744,122.799848 C268.272503,124.986497 270.737484,126.082114 273.856161,126.082114 C276.974838,126.082114 279.489754,124.986497 281.350973,122.799848 C283.257588,120.613198 284.210895,117.725171 284.210895,114.099092 L284.210895,58.1584568 Z M307.249157,52.6482836 C307.553307,54.7019921 307.725811,56.8886415 307.725811,59.1669743 L307.725811,113.090574 C307.725811,115.364323 307.553307,117.550972 307.249157,119.609265 C306.168742,126.778908 303.263424,132.68332 298.456031,137.363758 C292.309468,143.442368 284.079248,146.463337 273.856161,146.463337 C263.637613,146.463337 255.452789,143.442368 249.301686,137.363758 C243.195979,131.330989 240.163554,123.239928 240.163554,113.090574 L240.163554,59.1669743 C240.163554,49.0634621 243.195979,40.9724008 249.301686,34.8892063 C255.452789,28.8564377 263.637613,25.7942117 273.856161,25.7942117 C284.079248,25.7942117 292.309468,28.8564377 298.456031,34.8892063 C303.263424,39.6154863 306.168742,45.5198982 307.249157,52.6482836 L307.249157,52.6482836 Z M228.387938,27.1511262 L209.026719,27.1511262 C207.941764,27.1511262 207.165499,27.6737217 206.688846,28.6822392 L192.180415,60.1709077 C191.830869,60.8722858 191.531258,60.8722858 191.181712,60.1709077 L177.281582,29.993312 L177.281582,69.3988433 C177.40869,69.444685 177.540337,69.6188835 177.671984,69.793082 L190.532555,96.2529152 C191.054604,97.2568486 191.440467,97.7840283 191.703761,97.7840283 C192.007912,97.7840283 192.393774,97.2568486 192.870428,96.2529152 L205.867185,70.141479 C205.994293,69.660141 206.166796,69.4859426 206.470947,69.5317843 C206.729702,69.6188835 206.861349,69.8343395 206.861349,70.3156775 L206.861349,143.093971 C206.861349,143.662409 207.079248,144.143746 207.46965,144.537985 C207.855512,144.932224 208.332166,145.14768 208.854215,145.14768 L228.387938,145.14768 C228.950843,145.14768 229.427497,144.932224 229.817899,144.537985 C230.203761,144.143746 230.42166,143.662409 230.42166,143.093971 L230.42166,29.1635771 C230.42166,28.59514 230.203761,28.1550596 229.817899,27.7608209 C229.427497,27.3665822 228.950843,27.1511262 228.387938,27.1511262 L228.387938,27.1511262 Z M554.537095,201.138741 C553.14345,199.827668 551.032555,198.122356 548.195331,196.018222 C546.070817,194.40001 544.463813,193.088937 543.374319,192.089588 C542.289364,191.085654 541.472244,190.022127 540.932036,188.899005 C540.387289,187.780467 540.114916,186.483147 540.114916,185.00246 C540.114916,182.522424 540.727756,180.601656 541.957977,179.240157 C543.188197,177.883243 544.745266,177.200201 546.638262,177.200201 C548.71284,177.200201 550.383398,177.97951 551.631777,179.52896 C552.884695,181.07841 553.511154,183.118366 553.511154,185.644244 L553.511154,187.505417 C553.511154,187.986755 553.742672,188.225132 554.214786,188.225132 L557.760182,188.225132 C558.232296,188.225132 558.468353,187.986755 558.468353,187.505417 L558.468353,185.717591 C558.468353,181.807293 557.392477,178.667136 555.245266,176.306288 C553.093515,173.94544 550.224514,172.762724 546.638262,172.762724 C543.233593,172.762724 540.473541,173.849173 538.344488,176.02207 C536.219974,178.190382 535.153178,181.138004 535.153178,184.860351 C535.153178,187.244119 535.593515,189.316165 536.46511,191.085654 C537.341245,192.85056 538.462516,194.363336 539.833463,195.628568 C541.20441,196.893799 543.070169,198.411159 545.430739,200.171481 C547.79585,201.986812 549.484565,203.329974 550.496887,204.214719 C551.513748,205.099464 552.344488,206.121734 552.980026,207.290698 C553.615564,208.464246 553.933333,209.857833 553.933333,211.48063 C553.933333,213.91024 553.275097,215.867681 551.949546,217.343784 C550.628534,218.824471 548.976135,219.562523 546.987808,219.562523 C545.00856,219.562523 543.374319,218.792382 542.103243,217.242932 C540.823087,215.688899 540.187549,213.653527 540.187549,211.11848 L540.187549,209.619457 C540.187549,209.142703 539.951492,208.899742 539.479377,208.899742 L535.938521,208.899742 C535.461868,208.899742 535.225811,209.142703 535.225811,209.619457 L535.225811,211.338521 C535.225811,215.106709 536.315305,218.159767 538.485214,220.493109 C540.659663,222.831036 543.492348,224 546.987808,224 C550.483268,224 553.343191,222.817284 555.563035,220.456436 C557.782879,218.095588 558.895071,214.960015 558.895071,211.049718 C558.895071,208.8539 558.513748,206.983558 557.760182,205.434109 C557.006615,203.884659 555.930739,202.449814 554.537095,201.138741 L554.537095,201.138741 Z M529.065629,173.335745 L525.447601,173.335745 C524.975486,173.335745 524.739429,173.578707 524.739429,174.05546 L524.739429,210.765499 C524.739429,213.387645 524.081193,215.510116 522.755642,217.132912 C521.43463,218.751125 519.6869,219.562523 517.512451,219.562523 C515.387938,219.562523 513.671984,218.751125 512.373671,217.132912 C511.075357,215.510116 510.4262,213.387645 510.4262,210.765499 L510.4262,174.05546 C510.4262,173.578707 510.190143,173.335745 509.718029,173.335745 L506.10454,173.335745 C505.632425,173.335745 505.396368,173.578707 505.396368,174.05546 L505.396368,210.192478 C505.396368,214.341152 506.50856,217.678429 508.723865,220.208891 C510.948249,222.739353 513.876265,224 517.512451,224 C521.198573,224 524.162905,222.739353 526.405447,220.208891 C528.652529,217.678429 529.7738,214.341152 529.7738,210.192478 L529.7738,174.05546 C529.7738,173.578707 529.537743,173.335745 529.065629,173.335745 L529.065629,173.335745 Z M476.633722,172.762724 C472.992996,172.762724 470.087678,173.849173 467.917769,176.02207 C465.74332,178.190382 464.658366,181.092162 464.658366,184.713657 L464.658366,212.049067 C464.658366,215.67973 465.74332,218.572342 467.917769,220.745239 C470.087678,222.913552 472.992996,224 476.633722,224 C480.269909,224 483.188846,222.913552 485.385992,220.745239 C487.583139,218.572342 488.677173,215.67973 488.677173,212.049067 L488.677173,198.956675 C488.677173,198.479922 488.441115,198.236961 487.973541,198.236961 L477.2738,198.236961 C476.797147,198.236961 476.561089,198.479922 476.561089,198.956675 L476.561089,201.959307 C476.561089,202.436061 476.797147,202.674438 477.2738,202.674438 L483.365888,202.674438 C483.55201,202.674438 483.647341,202.770706 483.647341,202.963241 L483.647341,212.122414 C483.647341,214.364073 483.011803,216.165652 481.736187,217.522567 C480.456031,218.884066 478.758236,219.562523 476.633722,219.562523 C474.554604,219.562523 472.865888,218.874897 471.567575,217.485893 C470.269261,216.106058 469.620104,214.318231 469.620104,212.122414 L469.620104,184.644895 C469.620104,182.449077 470.269261,180.66125 471.567575,179.276831 C472.865888,177.896995 474.554604,177.200201 476.633722,177.200201 C478.758236,177.200201 480.456031,177.883243 481.736187,179.240157 C483.011803,180.601656 483.647341,182.403235 483.647341,184.644895 L483.647341,187.862982 C483.647341,188.339736 483.883398,188.578113 484.355512,188.578113 L487.973541,188.578113 C488.441115,188.578113 488.677173,188.339736 488.677173,187.862982 L488.677173,184.787004 C488.677173,181.160925 487.583139,178.249976 485.385992,176.058743 C483.188846,173.862925 480.269909,172.762724 476.633722,172.762724 L476.633722,172.762724 Z M457.785473,173.335745 L454.244617,173.335745 C453.772503,173.335745 453.536446,173.578707 453.536446,174.05546 L453.536446,209.977022 C453.536446,210.114547 453.486511,210.192478 453.39118,210.192478 C453.29585,210.192478 453.223217,210.114547 453.177821,209.977022 L438.932685,173.908767 C438.791958,173.528281 438.533204,173.335745 438.15642,173.335745 L434.402205,173.335745 C433.930091,173.335745 433.694034,173.578707 433.694034,174.05546 L433.694034,222.711848 C433.694034,223.188602 433.930091,223.426979 434.402205,223.426979 L438.015694,223.426979 C438.487808,223.426979 438.723865,223.188602 438.723865,222.711848 L438.651232,186.863633 C438.651232,186.721524 438.696628,186.634425 438.791958,186.611504 C438.887289,186.588583 438.959922,186.648177 439.009857,186.790286 L453.250454,222.853957 C453.39118,223.239028 453.649935,223.426979 454.026719,223.426979 L457.785473,223.426979 C458.257588,223.426979 458.493645,223.188602 458.493645,222.711848 L458.493645,174.05546 C458.493645,173.578707 458.257588,173.335745 457.785473,173.335745 L457.785473,173.335745 Z M425.618158,173.335745 L422.00013,173.335745 C421.528016,173.335745 421.291958,173.578707 421.291958,174.05546 L421.291958,222.711848 C421.291958,223.188602 421.528016,223.426979 422.00013,223.426979 L425.618158,223.426979 C426.085733,223.426979 426.32179,223.188602 426.32179,222.711848 L426.32179,174.05546 C426.32179,173.578707 426.085733,173.335745 425.618158,173.335745 L425.618158,173.335745 Z M415.903502,173.335745 L412.076654,173.335745 C411.654475,173.335745 411.39572,173.555786 411.300389,173.982114 L403.714786,213.983587 C403.66939,214.079855 403.619455,214.125696 403.57406,214.125696 C403.524125,214.125696 403.478729,214.079855 403.433333,213.983587 L395.779637,173.982114 C395.734241,173.555786 395.475486,173.335745 395.003372,173.335745 L391.035798,173.335745 C390.609079,173.335745 390.39572,173.555786 390.39572,173.982114 L390.39572,174.128807 L400.673281,222.785195 C400.768612,223.216107 401.022827,223.426979 401.449546,223.426979 L405.485214,223.426979 C405.957328,223.426979 406.220623,223.216107 406.270558,222.785195 L416.54358,174.128807 C416.638911,173.601627 416.425551,173.335745 415.903502,173.335745 L415.903502,173.335745 Z M382.456031,185.071222 C382.456031,182.73788 381.784176,180.840033 380.440467,179.386851 C379.092218,177.929085 377.330869,177.200201 375.16096,177.200201 C373.031907,177.200201 371.306874,177.929085 369.985863,179.386851 C368.664851,180.840033 368.002075,182.73788 368.002075,185.071222 L368.002075,211.764848 C368.002075,214.05235 368.664851,215.927275 369.985863,217.380458 C371.306874,218.838224 373.031907,219.562523 375.16096,219.562523 C377.330869,219.562523 379.092218,218.838224 380.440467,217.380458 C381.784176,215.927275 382.456031,214.05235 382.456031,211.764848 L382.456031,185.071222 Z M384.090272,176.200852 C386.355512,178.488353 387.490402,181.523074 387.490402,185.286678 L387.490402,211.48063 C387.490402,215.198392 386.355512,218.219361 384.090272,220.529783 C381.820493,222.844789 378.842542,224 375.16096,224 C371.520233,224 368.583139,222.853957 366.336057,220.566456 C364.093515,218.278955 362.972244,215.248818 362.972244,211.48063 L362.972244,185.286678 C362.972244,181.523074 364.093515,178.488353 366.336057,176.200852 C368.583139,173.908767 371.520233,172.762724 375.16096,172.762724 C378.842542,172.762724 381.820493,173.908767 384.090272,176.200852 L384.090272,176.200852 Z M355.386641,174.05546 L355.386641,222.711848 C355.386641,223.188602 355.146044,223.426979 354.67393,223.426979 L351.060441,223.426979 C350.588327,223.426979 350.35227,223.188602 350.35227,222.711848 L350.35227,186.075156 C350.35227,185.933047 350.302335,185.8597 350.211543,185.8597 C350.111673,185.8597 350.04358,185.910126 349.998184,186.006393 L342.771206,202.605675 C342.63048,202.990746 342.417121,203.178697 342.131128,203.178697 C341.799741,203.178697 341.563684,202.990746 341.422957,202.605675 L334.055253,185.933047 C334.005318,185.836779 333.937224,185.786353 333.841894,185.786353 C333.746563,185.786353 333.701167,185.8597 333.701167,186.006393 L333.701167,222.711848 C333.701167,223.188602 333.46511,223.426979 332.992996,223.426979 L329.374968,223.426979 C328.902853,223.426979 328.666796,223.188602 328.666796,222.711848 L328.666796,174.05546 C328.666796,173.578707 328.902853,173.335745 329.374968,173.335745 L333.061089,173.335745 C333.437873,173.335745 333.701167,173.528281 333.841894,173.908767 L341.777043,193.304393 C341.826978,193.400661 341.895071,193.446502 341.990402,193.446502 C342.085733,193.446502 342.158366,193.400661 342.203761,193.304393 L350.211543,173.908767 C350.35227,173.528281 350.611025,173.335745 350.992348,173.335745 L354.67393,173.335745 C355.146044,173.335745 355.386641,173.578707 355.386641,174.05546 L355.386641,174.05546 Z" id="Fill-1" fill="#ECE70B" mask="url(#mask-2)"></path>
            </g>
        </g>
    </g>
</svg>